<?xml version="1.0" encoding="UTF-8" standalone="no"?>
<!DOCTYPE svg PUBLIC "-//W3C//DTD SVG 1.1//EN" "http://www.w3.org/Graphics/SVG/1.1/DTD/svg11.dtd">
<svg width="100%" height="100%" viewBox="0 0 800 800" version="1.1" xmlns="http://www.w3.org/2000/svg" xmlns:xlink="http://www.w3.org/1999/xlink" xml:space="preserve" xmlns:serif="http://www.serif.com/" style="fill-rule:evenodd;clip-rule:evenodd;stroke-linejoin:round;stroke-miterlimit:2;">
    <g transform="matrix(0.620121,0,0,0.620121,115.672,585.917)">
        <path d="M0,24.093L-21.881,-20.406L-43.762,24.093L0,24.093ZM44.992,38.845C54.826,59.005 56.792,64.906 56.792,79.656L56.792,82.115C56.792,84.328 55.317,85.803 53.105,85.803L26.061,85.803C23.848,85.803 22.373,84.328 22.373,82.115L22.373,79.656C22.373,69.822 21.881,67.856 14.751,53.596L-58.514,53.596C-64.906,66.135 -66.135,70.806 -66.135,79.656L-66.135,82.115C-66.135,84.328 -67.61,85.803 -69.823,85.803L-96.867,85.803C-99.08,85.803 -100.555,84.328 -100.555,82.115L-100.555,79.656C-100.555,66.381 -97.851,57.284 -88.754,38.845L-46.958,-45.484C-42.042,-55.318 -32.453,-61.71 -21.881,-61.71C-11.31,-61.71 -1.721,-55.318 3.196,-45.484L44.992,38.845Z" style="fill:rgb(122,197,190);fill-rule:nonzero;"/>
    </g>
    <g transform="matrix(0.620121,0,0,0.620121,176.96,639.125)">
        <path d="M0,-147.513L27.044,-147.513C29.257,-147.513 30.732,-146.038 30.732,-143.825L30.732,-3.688C30.732,-1.475 29.257,0 27.044,0L0,0C-2.212,0 -3.688,-1.475 -3.688,-3.688L-3.688,-143.825C-3.688,-146.038 -2.212,-147.513 0,-147.513" style="fill:rgb(122,197,190);fill-rule:nonzero;"/>
    </g>
    <g transform="matrix(0.620121,0,0,0.620121,274.976,620.83)">
        <path d="M0,-88.509L0,-43.026L68.84,-43.026C74.249,-43.026 76.215,-44.746 76.215,-52.86L76.215,-78.674C76.215,-86.787 74.249,-88.509 68.84,-88.509L0,-88.509ZM110.635,-52.86C110.635,-31.716 97.113,-16.965 76.707,-14.015L93.671,-1.23C96.13,-0 97.851,-0 104.243,-0L105.718,-0C107.931,-0 109.406,1.474 109.406,3.687L109.406,25.814C109.406,28.027 107.931,29.502 105.718,29.502L104.243,29.502C89.983,29.502 80.641,27.289 72.773,22.127L25.569,-13.523L0,-13.523L0,25.814C0,28.027 -1.475,29.502 -3.688,29.502L-30.732,29.502C-32.944,29.502 -34.419,28.027 -34.419,25.814L-34.419,-114.323C-34.419,-116.536 -32.944,-118.011 -30.732,-118.011L68.84,-118.011C93.671,-118.011 110.635,-102.523 110.635,-78.674L110.635,-52.86Z" style="fill:white;fill-rule:nonzero;"/>
    </g>
    <g transform="matrix(0.620121,0,0,0.620121,426.673,585.917)">
        <path d="M0,24.093L-21.881,-20.406L-43.762,24.093L0,24.093ZM44.991,38.845C54.826,59.005 56.792,64.906 56.792,79.656L56.792,82.115C56.792,84.328 55.317,85.803 53.104,85.803L26.061,85.803C23.848,85.803 22.373,84.328 22.373,82.115L22.373,79.656C22.373,69.822 21.881,67.856 14.751,53.596L-58.514,53.596C-64.906,66.135 -66.135,70.806 -66.135,79.656L-66.135,82.115C-66.135,84.328 -67.61,85.803 -69.823,85.803L-96.867,85.803C-99.08,85.803 -100.555,84.328 -100.555,82.115L-100.555,79.656C-100.555,66.381 -97.851,57.284 -88.754,38.845L-46.958,-45.484C-42.042,-55.318 -32.453,-61.71 -21.881,-61.71C-11.31,-61.71 -1.721,-55.318 3.196,-45.484L44.991,38.845Z" style="fill:white;fill-rule:nonzero;"/>
    </g>
    <g transform="matrix(0.620121,0,0,0.620121,555.807,614.731)">
        <path d="M0,-68.839C0,-76.952 -1.967,-78.674 -7.376,-78.674L-83.591,-78.674L-83.591,9.835L-7.376,9.835C-1.967,9.835 0,8.113 0,0L0,-68.839ZM34.419,0C34.419,23.849 17.456,39.337 -7.376,39.337L-114.323,39.337C-116.536,39.337 -118.011,37.862 -118.011,35.649L-118.011,-104.488C-118.011,-106.701 -116.536,-108.176 -114.323,-108.176L-7.376,-108.176C17.456,-108.176 34.419,-92.688 34.419,-68.839L34.419,0Z" style="fill:white;fill-rule:nonzero;"/>
    </g>
    <g transform="matrix(0.620121,0,0,0.620121,604.745,639.125)">
        <path d="M0,-147.513L27.044,-147.513C29.257,-147.513 30.732,-146.038 30.732,-143.825L30.732,-3.688C30.732,-1.475 29.257,0 27.044,0L0,0C-2.212,0 -3.688,-1.475 -3.688,-3.688L-3.688,-143.825C-3.688,-146.038 -2.212,-147.513 0,-147.513" style="fill:white;fill-rule:nonzero;"/>
    </g>
    <g transform="matrix(0.620121,0,0,0.620121,725.341,614.731)">
        <path d="M0,-68.839C0,-76.952 -1.967,-78.674 -7.376,-78.674L-81.132,-78.674C-86.542,-78.674 -88.508,-76.952 -88.508,-68.839L-88.508,0C-88.508,8.113 -86.542,9.835 -81.132,9.835L-7.376,9.835C-1.967,9.835 0,8.113 0,0L0,-68.839ZM34.419,0C34.419,23.849 17.456,39.337 -7.376,39.337L-81.132,39.337C-105.964,39.337 -122.928,23.849 -122.928,0L-122.928,-68.839C-122.928,-92.688 -105.964,-108.176 -81.132,-108.176L-7.376,-108.176C17.456,-108.176 34.419,-92.688 34.419,-68.839L34.419,0Z" style="fill:white;fill-rule:nonzero;"/>
    </g>
    <g transform="matrix(0.620121,0,0,0.620121,241.813,710.659)">
        <path d="M0,-20.345C0,-29.206 -5.941,-34.342 -17.421,-34.342L-32.729,-34.342L-32.729,-6.345L-17.421,-6.345C-5.941,-6.345 0,-11.482 0,-20.345M13.192,-20.345C13.192,-4.836 1.712,4.731 -16.817,4.731L-32.729,4.731L-32.729,25.074L-45.82,25.074L-45.82,-45.419L-16.817,-45.419C1.712,-45.419 13.192,-35.953 13.192,-20.345" style="fill:white;fill-rule:nonzero;"/>
    </g>
    <g transform="matrix(0.620121,0,0,0.620121,280.599,726.208)">
        <path d="M0,-70.493L13.091,-70.493L13.091,-11.078L49.949,-11.078L49.949,0L0,0L0,-70.493Z" style="fill:white;fill-rule:nonzero;"/>
    </g>
    <g transform="matrix(0.620121,0,0,0.620121,366.471,698.981)">
        <path d="M0,17.319L-13.293,-13.496L-26.486,17.319L0,17.319ZM4.33,27.592L-30.917,27.592L-37.866,43.906L-51.36,43.906L-19.638,-26.587L-6.748,-26.587L25.075,43.906L11.379,43.906L4.33,27.592Z" style="fill:white;fill-rule:nonzero;"/>
    </g>
    <g transform="matrix(0.620121,0,0,0.620121,426.302,697.918)">
        <path d="M0,20.745L0,45.619L-13.091,45.619L-13.091,20.946L-40.786,-24.874L-26.788,-24.874L-6.143,9.467L14.704,-24.874L27.594,-24.874L0,20.745Z" style="fill:white;fill-rule:nonzero;"/>
    </g>
    <g transform="matrix(0.620121,0,0,0.620121,503.37,689.3)">
        <path d="M0,48.54L0,59.517L-52.869,59.517L-52.869,-10.977L-1.41,-10.977L-1.41,0L-39.778,0L-39.778,18.328L-5.74,18.328L-5.74,29.103L-39.778,29.103L-39.778,48.54L0,48.54Z" style="fill:white;fill-rule:nonzero;"/>
    </g>
    <g transform="matrix(0.620121,0,0,0.620121,552.522,719.339)">
        <path d="M0,-48.339L-15.307,-48.339L-15.307,-20.241L0,-20.241C11.481,-20.241 17.423,-25.479 17.423,-34.342C17.423,-43.203 11.481,-48.339 0,-48.339M17.726,11.077L3.324,-9.567C2.417,-9.467 1.511,-9.467 0.605,-9.467L-15.307,-9.467L-15.307,11.077L-28.397,11.077L-28.397,-59.416L0.605,-59.416C19.134,-59.416 30.616,-49.95 30.616,-34.342C30.616,-23.666 25.176,-15.811 15.61,-12.085L31.824,11.077L17.726,11.077Z" style="fill:white;fill-rule:nonzero;"/>
    </g>
    <g transform="matrix(0.620121,0,0,0.620121,582.566,219.042)">
        <path d="M0,196.105C-3.11,142.453 -9.878,72.306 -34.817,5.549C-69.473,-87.223 -161.33,-153.408 -260.755,-158.621L-260.755,-198.477L-323.846,-198.477L-323.846,-234.229L-359.598,-234.229L-359.598,-198.477L-328.053,-198.477L-328.053,-131.18L-260.755,-131.18L-260.755,-131.229C-172.501,-126.048 -91.182,-67.21 -60.428,15.116C-38.917,72.7 -31.61,133.733 -28.207,183.225L-67.275,183.225C-74.824,183.225 -80.944,189.346 -80.944,196.895L-80.944,322.027L-205.024,322.027C-212.574,322.027 -218.694,328.147 -218.694,335.697L-218.694,402.994L-372.216,402.994L-372.216,330.439C-372.216,282.471 -403.565,249.691 -431.222,220.77L-432.95,218.963C-470.883,179.272 -488.927,143.196 -491.458,101.987C-491.529,100.835 -491.756,99.733 -492.09,98.681L-492.09,34.96L-553.079,34.96L-553.079,5.518L-588.83,5.518L-588.83,41.27L-559.388,41.27L-559.388,102.258L-518.762,102.258C-518.78,102.721 -518.776,103.19 -518.747,103.663C-515.792,151.775 -495.426,193.161 -452.715,237.851L-450.981,239.666C-424.535,267.32 -399.556,293.44 -399.556,330.439L-399.556,416.664C-399.556,424.213 -393.436,430.334 -385.886,430.334L-146.139,430.334C-138.589,430.334 -132.469,424.213 -132.469,416.664L-132.469,349.367L-67.275,349.367C-59.725,349.367 -53.605,343.246 -53.605,335.697L-53.605,210.565L-13.647,210.565C-9.885,210.565 -6.288,209.014 -3.705,206.278C-1.122,203.542 0.218,199.861 0,196.105" style="fill:rgb(122,197,190);fill-rule:nonzero;"/>
    </g>
    <g transform="matrix(0.620121,0,0,0.620121,303.331,155.301)">
        <path d="M0,207.149C7.549,207.149 13.67,201.029 13.67,193.48C13.67,101.87 88.201,27.339 179.811,27.339C187.36,27.339 193.48,21.218 193.48,13.67C193.48,6.12 187.36,0 179.811,0C73.125,0 -13.67,86.795 -13.67,193.48C-13.67,201.029 -7.55,207.149 0,207.149" style="fill:white;fill-rule:nonzero;"/>
    </g>
    <g transform="matrix(0.620121,0,0,0.620121,491.826,360.75)">
        <path d="M0,-151.494C-7.549,-151.494 -13.669,-145.374 -13.669,-137.824C-13.669,-76.903 -63.233,-27.34 -124.154,-27.34C-131.704,-27.34 -137.824,-21.22 -137.824,-13.67C-137.824,-6.12 -131.704,0 -124.154,0C-48.157,0 13.67,-61.827 13.67,-137.824C13.67,-145.374 7.55,-151.494 0,-151.494" style="fill:white;fill-rule:nonzero;"/>
    </g>
    <g transform="matrix(0.620121,0,0,0.620121,423.312,275.281)">
        <path d="M0,-124.154C0,-131.704 -6.12,-137.824 -13.669,-137.824C-89.667,-137.824 -151.494,-75.997 -151.494,0.001C-151.494,7.55 -145.374,13.67 -137.824,13.67C-130.275,13.67 -124.154,7.55 -124.154,0.001C-124.154,-60.921 -74.591,-110.484 -13.669,-110.484C-6.12,-110.484 0,-116.604 0,-124.154" style="fill:white;fill-rule:nonzero;"/>
    </g>
    <g transform="matrix(0.620121,0,0,0.620121,456.567,325.492)">
        <path d="M0,-94.637C-7.55,-94.637 -13.67,-88.517 -13.67,-80.967C-13.67,-51.398 -37.728,-27.34 -67.297,-27.34C-74.847,-27.34 -80.967,-21.22 -80.967,-13.67C-80.967,-6.12 -74.847,0 -67.297,0C-22.652,0 13.67,-36.322 13.67,-80.967C13.67,-88.517 7.55,-94.637 0,-94.637" style="fill:white;fill-rule:nonzero;"/>
    </g>
    <g transform="matrix(0.620121,0,0,0.620121,373.102,225.072)">
        <path d="M0,94.637C7.55,94.637 13.67,88.517 13.67,80.968C13.67,51.398 37.728,27.34 67.298,27.34C74.847,27.34 80.967,21.22 80.967,13.67C80.967,6.12 74.847,0 67.298,0C22.652,0 -13.669,36.323 -13.669,80.968C-13.669,88.517 -7.549,94.637 0,94.637" style="fill:white;fill-rule:nonzero;"/>
    </g>
    <g transform="matrix(-0.620121,0,0,0.620121,414.998,288.976)">
        <path d="M0,-44.164C12.195,-44.164 22.082,-34.278 22.082,-22.082C22.082,-9.887 12.195,0 0,0C-12.196,0 -22.082,-9.887 -22.082,-22.082C-22.082,-34.278 -12.196,-44.164 0,-44.164" style="fill:white;fill-rule:nonzero;"/>
    </g>
    <g transform="matrix(0.620121,0,0,0.620121,406.358,275.282)">
        <path d="M0,179.811C0,187.36 6.12,193.48 13.67,193.48C120.355,193.48 207.15,106.686 207.15,0C207.15,-7.549 201.03,-13.669 193.48,-13.669C185.931,-13.669 179.811,-7.549 179.811,0C179.811,91.61 105.28,166.141 13.67,166.141C6.12,166.141 0,172.261 0,179.811" style="fill:white;fill-rule:nonzero;"/>
    </g>
    <g transform="matrix(0.620121,0,0,0.620121,-233.748,-787.836)">
        <rect x="921.028" y="1454.65" width="25.237" height="25.236" style="fill:rgb(122,197,190);"/>
    </g>
    <g transform="matrix(-0.620121,0,0,0.620121,896.813,-867.389)">
        <rect x="897.895" y="1517.74" width="27.339" height="27.34" style="fill:rgb(122,197,190);"/>
    </g>
    <g transform="matrix(-0.620121,0,0,0.620121,759.878,-626.123)">
        <rect x="778.021" y="1313.74" width="46.267" height="46.267" style="fill:rgb(122,197,190);"/>
    </g>
</svg>
