<?xml version="1.0" encoding="UTF-8" standalone="no"?>
<!DOCTYPE svg PUBLIC "-//W3C//DTD SVG 1.1//EN" "http://www.w3.org/Graphics/SVG/1.1/DTD/svg11.dtd">
<svg width="100%" height="100%" viewBox="0 0 1080 1080" version="1.1" xmlns="http://www.w3.org/2000/svg" xmlns:xlink="http://www.w3.org/1999/xlink" xml:space="preserve" xmlns:serif="http://www.serif.com/" style="fill-rule:evenodd;clip-rule:evenodd;stroke-linejoin:round;stroke-miterlimit:2;">
    <g id="logo" transform="matrix(1,0,0,1,-481.975,-247.203)">
        <g transform="matrix(1,0,0,1,1316.38,689.151)">
            <path d="M0,196.105C-3.11,142.453 -9.878,72.306 -34.817,5.549C-69.473,-87.223 -161.33,-153.408 -260.755,-158.621L-260.755,-198.477L-323.846,-198.477L-323.846,-234.229L-359.598,-234.229L-359.598,-198.477L-328.053,-198.477L-328.053,-131.18L-260.755,-131.18L-260.755,-131.229C-172.501,-126.048 -91.182,-67.21 -60.428,15.116C-38.917,72.7 -31.61,133.733 -28.207,183.225L-67.275,183.225C-74.824,183.225 -80.944,189.346 -80.944,196.895L-80.944,322.027L-205.024,322.027C-212.574,322.027 -218.694,328.147 -218.694,335.697L-218.694,402.994L-372.216,402.994L-372.216,330.439C-372.216,282.471 -403.565,249.691 -431.222,220.77L-432.95,218.963C-470.883,179.272 -488.927,143.196 -491.458,101.987C-491.529,100.835 -491.756,99.733 -492.09,98.681L-492.09,34.96L-553.079,34.96L-553.079,5.518L-588.83,5.518L-588.83,41.27L-559.388,41.27L-559.388,102.258L-518.762,102.258C-518.78,102.721 -518.776,103.19 -518.747,103.663C-515.792,151.775 -495.426,193.161 -452.715,237.851L-450.981,239.666C-424.535,267.32 -399.556,293.44 -399.556,330.439L-399.556,416.664C-399.556,424.213 -393.436,430.334 -385.886,430.334L-146.139,430.334C-138.589,430.334 -132.469,424.213 -132.469,416.664L-132.469,349.367L-67.275,349.367C-59.725,349.367 -53.605,343.246 -53.605,335.697L-53.605,210.565L-13.647,210.565C-9.885,210.565 -6.288,209.014 -3.705,206.278C-1.122,203.542 0.218,199.861 0,196.105" style="fill:rgb(122,197,190);fill-rule:nonzero;"/>
        </g>
        <g transform="matrix(1,0,0,1,866.086,586.363)">
            <path d="M0,207.149C7.549,207.149 13.67,201.029 13.67,193.48C13.67,101.87 88.201,27.339 179.811,27.339C187.36,27.339 193.48,21.218 193.48,13.67C193.48,6.12 187.36,0 179.811,0C73.125,0 -13.67,86.795 -13.67,193.48C-13.67,201.029 -7.55,207.149 0,207.149" style="fill:white;fill-rule:nonzero;"/>
        </g>
        <g transform="matrix(1,0,0,1,1170.05,917.667)">
            <path d="M0,-151.494C-7.549,-151.494 -13.669,-145.374 -13.669,-137.824C-13.669,-76.903 -63.233,-27.34 -124.154,-27.34C-131.704,-27.34 -137.824,-21.22 -137.824,-13.67C-137.824,-6.12 -131.704,0 -124.154,0C-48.157,0 13.67,-61.827 13.67,-137.824C13.67,-145.374 7.55,-151.494 0,-151.494" style="fill:white;fill-rule:nonzero;"/>
        </g>
        <g transform="matrix(1,0,0,1,1059.57,779.841)">
            <path d="M0,-124.154C0,-131.704 -6.12,-137.824 -13.669,-137.824C-89.667,-137.824 -151.494,-75.997 -151.494,0.001C-151.494,7.55 -145.374,13.67 -137.824,13.67C-130.275,13.67 -124.154,7.55 -124.154,0.001C-124.154,-60.921 -74.591,-110.484 -13.669,-110.484C-6.12,-110.484 0,-116.604 0,-124.154" style="fill:white;fill-rule:nonzero;"/>
        </g>
        <g transform="matrix(1,0,0,1,1113.19,860.81)">
            <path d="M0,-94.637C-7.55,-94.637 -13.67,-88.517 -13.67,-80.967C-13.67,-51.398 -37.728,-27.34 -67.297,-27.34C-74.847,-27.34 -80.967,-21.22 -80.967,-13.67C-80.967,-6.12 -74.847,0 -67.297,0C-22.652,0 13.67,-36.322 13.67,-80.967C13.67,-88.517 7.55,-94.637 0,-94.637" style="fill:white;fill-rule:nonzero;"/>
        </g>
        <g transform="matrix(1,0,0,1,978.599,698.875)">
            <path d="M0,94.637C7.55,94.637 13.67,88.517 13.67,80.968C13.67,51.398 37.728,27.34 67.298,27.34C74.847,27.34 80.967,21.22 80.967,13.67C80.967,6.12 74.847,0 67.298,0C22.652,0 -13.669,36.323 -13.669,80.968C-13.669,88.517 -7.549,94.637 0,94.637" style="fill:white;fill-rule:nonzero;"/>
        </g>
        <g transform="matrix(-1,0,0,1,1046.16,801.925)">
            <path d="M0,-44.164C12.195,-44.164 22.082,-34.278 22.082,-22.082C22.082,-9.887 12.195,0 0,0C-12.196,0 -22.082,-9.887 -22.082,-22.082C-22.082,-34.278 -12.196,-44.164 0,-44.164" style="fill:white;fill-rule:nonzero;"/>
        </g>
        <g transform="matrix(1,0,0,1,1032.23,779.842)">
            <path d="M0,179.811C0,187.36 6.12,193.48 13.67,193.48C120.355,193.48 207.15,106.686 207.15,0C207.15,-7.549 201.03,-13.669 193.48,-13.669C185.931,-13.669 179.811,-7.549 179.811,0C179.811,91.61 105.28,166.141 13.67,166.141C6.12,166.141 0,172.261 0,179.811" style="fill:white;fill-rule:nonzero;"/>
        </g>
        <g transform="matrix(1,0,0,1,0,-934.53)">
            <rect x="921.028" y="1454.65" width="25.237" height="25.236" style="fill:rgb(122,197,190);"/>
        </g>
        <g transform="matrix(-1,0,0,1,1823.13,-1062.82)">
            <rect x="897.895" y="1517.74" width="27.339" height="27.34" style="fill:rgb(122,197,190);"/>
        </g>
        <g transform="matrix(-1,0,0,1,1602.31,-673.753)">
            <rect x="778.021" y="1313.74" width="46.267" height="46.267" style="fill:rgb(122,197,190);"/>
        </g>
    </g>
</svg>
